<?xml version="1.0" standalone="no"?>
<!DOCTYPE svg PUBLIC "-//W3C//DTD SVG 20010904//EN"
 "http://www.w3.org/TR/2001/REC-SVG-20010904/DTD/svg10.dtd">
<svg version="1.0" xmlns="http://www.w3.org/2000/svg"
 width="700.000000pt" height="700.000000pt" viewBox="0 0 700.000000 700.000000"
 preserveAspectRatio="xMidYMid meet">
<metadata>
Created by potrace 1.14, written by Peter Selinger 2001-2017
</metadata>
<g transform="translate(0.000000,700.000000) scale(0.100000,-0.100000)"
fill="#000000" stroke="none">
<path d="M3457 6994 c-1 -1 -47 -4 -102 -8 -381 -23 -773 -180 -1070 -426 -68
-56 -234 -231 -288 -303 -148 -197 -264 -440 -322 -676 -22 -86 -30 -132 -51
-276 -10 -68 -13 -357 -4 -415 4 -30 11 -75 14 -100 4 -25 18 -88 32 -140 87
-332 272 -688 548 -1055 57 -76 174 -224 186 -235 3 -3 30 -34 60 -70 30 -35
62 -72 70 -80 8 -9 53 -58 100 -109 76 -83 367 -376 446 -448 16 -15 59 -55
95 -88 93 -85 242 -216 310 -273 15 -12 27 -4 100 60 46 40 89 77 95 83 511
465 746 711 1067 1115 42 53 174 239 223 315 198 309 350 670 389 925 4 25 11
70 15 100 11 74 5 366 -10 460 -6 41 -13 88 -15 104 -3 16 -16 73 -30 126
-141 549 -484 973 -987 1222 -95 47 -301 123 -362 134 -17 3 -50 9 -74 15 -23
5 -59 12 -78 15 -20 3 -46 8 -58 10 -39 7 -292 23 -299 18z m179 -1437 c81
-29 142 -67 194 -118 154 -156 180 -402 62 -585 -115 -178 -334 -258 -534
-195 -201 64 -333 245 -330 453 4 268 220 473 487 463 44 -2 98 -10 121 -18z"/>
<path d="M139 3325 c-2 -2 -33 -6 -69 -8 -36 -3 -67 -6 -69 -6 -4 -1 7 -197
13 -227 2 -11 7 -47 11 -79 4 -33 9 -67 10 -75 73 -410 164 -686 340 -1035
265 -524 639 -952 1145 -1306 323 -227 827 -449 1175 -519 28 -5 82 -16 120
-25 39 -8 90 -18 115 -21 25 -3 48 -8 51 -10 8 -5 179 -17 179 -13 0 2 4 30
10 62 29 180 32 621 5 752 -2 11 -6 38 -9 60 -20 151 -64 335 -122 501 -24 71
-46 136 -48 144 -11 39 -131 288 -172 355 -13 22 -27 47 -31 55 -7 17 -137
212 -158 238 -7 9 -42 53 -77 97 -85 108 -321 344 -438 437 -322 257 -682 436
-1085 538 -131 33 -198 46 -415 76 -50 7 -475 15 -481 9z"/>
<path d="M6479 3326 c-2 -2 -41 -7 -86 -10 -46 -4 -91 -9 -101 -11 -11 -2 -43
-6 -73 -10 -162 -20 -419 -90 -624 -171 -98 -39 -298 -137 -364 -178 -22 -14
-43 -26 -46 -26 -12 0 -238 -159 -325 -229 -111 -89 -321 -297 -407 -402 -68
-84 -183 -242 -207 -285 -9 -16 -29 -49 -45 -74 -85 -139 -183 -349 -246 -530
-38 -110 -99 -337 -109 -405 -3 -22 -8 -51 -10 -64 -3 -13 -8 -49 -12 -80 -3
-31 -8 -63 -9 -71 -24 -128 -21 -508 5 -687 5 -38 10 -74 10 -82 0 -11 15 -13
78 -8 66 5 117 13 277 42 338 62 780 231 1088 417 363 218 621 437 912 773 78
90 268 358 326 460 109 193 173 324 234 475 20 52 41 104 46 115 33 78 124
406 143 515 3 19 8 46 11 60 3 13 7 42 10 65 3 22 8 51 10 65 8 47 14 95 20
165 3 39 8 89 11 113 4 38 2 42 -18 43 -13 0 -32 3 -43 6 -22 5 -451 14 -456
9z"/>
</g>
</svg>
